<svg width="206" height="21" viewBox="0 0 206 21" fill="none" xmlns="http://www.w3.org/2000/svg">
<path d="M23.5602 11.4906C32.6313 14.3982 41.2989 15.6267 50.7686 16.3233C74.9254 18.1004 99.2109 17.9364 123.4 17.6055C145.644 17.3012 167.97 16.8368 190.169 15.0412C193.439 14.7767 196.717 14.541 199.96 13.9892C201.021 13.8086 205.292 12.869 201.383 11.5564C191.152 8.12138 179.024 8.45505 168.596 8.1702C148.868 7.63127 129.128 8.01766 109.398 7.54556C93.2382 7.1589 77.0858 6.44647 60.986 4.75113C58.2399 4.46197 55.5018 4.08048 52.7609 3.73199C51.4508 3.56542 50.1478 3.31669 48.8333 3.20598C48.322 3.16291 47.4966 2.72659 47.2964 3.27173C47.1089 3.78226 48.0115 4.02931 48.4348 4.29087C52.9755 7.09637 56.3783 7.93383 61.9821 9.09071C85.1908 13.8821 109.185 14.2586 132.679 14.6467C140.988 14.784 149.302 14.8035 157.61 14.5809C162.399 14.4527 167.303 14.9152 171.954 13.5947C173.433 13.175 169.195 11.9494 167.685 11.7208C137.051 7.08123 105.17 8.12269 74.391 8.92633C53.2559 9.47817 32.2562 11.1865 11.2082 13.233C9.31222 13.4174 7.4134 13.5608 5.51608 13.7262C4.6759 13.7994 3.55427 13.3762 3.01154 14.1207C2.75396 14.474 6.89065 17.768 7.1668 18" stroke="#0ACF83" stroke-opacity="0.45" stroke-width="5" stroke-linecap="round"/>
</svg>
