<svg width="55" height="53" viewBox="0 0 55 53" fill="none" xmlns="http://www.w3.org/2000/svg">
<circle opacity="0.3" cx="35" cy="33" r="20" fill="#473BF0"/>
<path fill-rule="evenodd" clip-rule="evenodd" d="M30 1C36.627 1 42 9.059 42 19V41H36V19C36 18.121 35.949 17.26 35.868 16.414C34.3612 18.0607 32.2321 18.999 30 19C26.6863 19 24 16.3137 24 13V7C24 5.4087 24.6321 3.88258 25.7574 2.75736C26.8826 1.63214 28.4087 1 30 1Z" stroke="#161C2D" stroke-width="2" stroke-linecap="round" stroke-linejoin="round"/>
<path fill-rule="evenodd" clip-rule="evenodd" d="M12 1C5.373 1 0 9.059 0 19V41H6V19C6 18.121 6.051 17.26 6.132 16.414C7.63885 18.0607 9.76792 18.999 12 19C15.3137 19 18 16.3137 18 13V7C18 3.68629 15.3137 1 12 1Z" stroke="#161C2D" stroke-width="2" stroke-linecap="round" stroke-linejoin="round"/>
<path d="M12 8V12" stroke="#161C2D" stroke-width="2" stroke-linecap="round" stroke-linejoin="round"/>
<path d="M30 8V12" stroke="#161C2D" stroke-width="2" stroke-linecap="round" stroke-linejoin="round"/>
</svg>
